<svg width="57" height="61" viewBox="0 0 57 61" fill="none" xmlns="http://www.w3.org/2000/svg">
<g filter="url(#filter0_d_126_1836)">
<path d="M28.418 52.8203C17.4219 52.8203 8.49609 43.8945 8.49609 32.8984C8.49609 23.1523 15.5078 15.0664 24.6484 13.3477V10.5742C24.6484 9.16797 25.6055 8.81641 26.6992 9.57812L32.9102 13.9531C33.8086 14.5977 33.7891 15.5352 32.9102 16.1602L26.6797 20.5352C25.6055 21.2773 24.6484 20.9258 24.6484 19.5391V16.7266C17.3047 18.4258 11.8164 24.9688 11.8164 32.8984C11.8164 42.0781 19.2383 49.5 28.418 49.5C37.5977 49.5 45.0195 42.0781 45.0195 32.8984C45.0195 27.332 42.2852 22.4297 38.1445 19.4609C37.3438 18.8555 37.0898 17.9375 37.5781 17.1172C38.0664 16.3359 39.1797 16.1016 40.0391 16.7656C45.0781 20.3984 48.3398 26.1992 48.3398 32.8984C48.3398 43.8945 39.4141 52.8203 28.418 52.8203Z" fill="white"/>
</g>
<defs>
<filter id="filter0_d_126_1836" x="0.496094" y="0.816406" width="55.8438" height="60.0039" filterUnits="userSpaceOnUse" color-interpolation-filters="sRGB">
<feFlood flood-opacity="0" result="BackgroundImageFix"/>
<feColorMatrix in="SourceAlpha" type="matrix" values="0 0 0 0 0 0 0 0 0 0 0 0 0 0 0 0 0 0 127 0" result="hardAlpha"/>
<feOffset/>
<feGaussianBlur stdDeviation="4"/>
<feComposite in2="hardAlpha" operator="out"/>
<feColorMatrix type="matrix" values="0 0 0 0 0 0 0 0 0 0 0 0 0 0 0 0 0 0 0.2 0"/>
<feBlend mode="normal" in2="BackgroundImageFix" result="effect1_dropShadow_126_1836"/>
<feBlend mode="normal" in="SourceGraphic" in2="effect1_dropShadow_126_1836" result="shape"/>
</filter>
</defs>
</svg>
